<?xml version="1.0" standalone="no"?>
<!DOCTYPE svg PUBLIC "-//W3C//DTD SVG 20010904//EN"
 "http://www.w3.org/TR/2001/REC-SVG-20010904/DTD/svg10.dtd">
<svg version="1.0" xmlns="http://www.w3.org/2000/svg"
 width="512.000000pt" height="512.000000pt" viewBox="0 0 512.000000 512.000000"
 preserveAspectRatio="xMidYMid meet">

<g transform="translate(0.000000,512.000000) scale(0.100000,-0.100000)"
fill="#000000" stroke="none">
<path d="M2523 4143 c-17 -43 -55 -130 -83 -193 -28 -63 -60 -135 -70 -160
-10 -25 -30 -71 -44 -102 -14 -31 -26 -59 -26 -62 0 -3 -11 -29 -24 -58 -13
-29 -65 -150 -115 -268 -140 -326 -165 -381 -172 -372 -4 4 -21 41 -39 82 -75
172 -162 354 -229 475 -76 137 -320 480 -332 467 -11 -12 -119 -342 -149 -452
-56 -210 -60 -295 -14 -396 29 -66 100 -114 167 -114 42 0 143 50 181 89 36
37 29 71 -14 71 -16 0 -32 -5 -35 -10 -11 -18 -104 -60 -132 -60 -99 0 -132
152 -78 360 22 86 98 316 107 325 6 6 143 -195 204 -300 75 -131 169 -327 264
-553 l52 -124 -46 -141 c-25 -78 -48 -155 -51 -171 l-6 -29 -62 60 c-88 85
-194 165 -320 239 -60 35 -110 64 -112 64 -2 0 -36 15 -77 34 -225 104 -473
156 -740 156 l-128 0 0 -33 c0 -19 7 -80 15 -138 56 -383 202 -727 448 -1053
33 -45 119 -140 191 -211 320 -319 719 -521 1183 -602 141 -24 520 -24 658 1
480 86 877 293 1207 632 107 110 171 190 258 320 107 162 225 408 266 559 8
28 23 84 34 125 24 85 60 304 60 361 l0 39 -142 0 c-354 -1 -686 -100 -983
-294 -97 -64 -162 -115 -248 -196 l-65 -61 -12 53 c-6 29 -29 104 -50 166
l-40 113 25 65 c13 35 31 79 39 97 8 17 36 79 61 137 82 186 208 419 295 548
47 69 90 127 95 128 10 3 80 -199 116 -338 25 -95 27 -218 5 -270 -33 -77 -90
-87 -180 -33 -67 40 -102 45 -111 14 -9 -29 33 -72 109 -109 70 -35 114 -38
172 -10 55 27 92 82 111 167 19 80 9 163 -37 328 -22 78 -115 363 -145 444 -6
17 -120 -129 -231 -296 -85 -129 -242 -430 -320 -615 -27 -65 -51 -118 -54
-118 -6 0 1 -17 -272 620 -22 52 -49 113 -58 135 -32 72 -99 227 -168 388 -37
86 -69 157 -72 157 -3 0 -19 -35 -37 -77z m63 -240 c14 -32 39 -86 55 -121 16
-35 29 -65 29 -68 0 -2 16 -38 35 -80 19 -41 35 -77 35 -79 0 -2 13 -32 29
-67 26 -56 93 -211 186 -428 18 -41 41 -95 52 -120 11 -25 26 -61 33 -80 7
-19 17 -39 22 -45 14 -16 9 -40 -23 -111 -55 -121 -66 -147 -107 -244 -94
-222 -170 -430 -212 -580 -39 -138 -48 -174 -65 -265 -9 -49 -20 -112 -26
-138 -12 -65 -11 -179 2 -233 23 -88 110 -144 203 -130 73 12 167 67 242 141
118 118 188 258 235 475 27 126 32 370 10 516 l-14 92 34 37 c51 56 184 166
269 222 296 196 629 303 949 303 l54 0 -7 -66 c-12 -115 -71 -343 -125 -476
-253 -634 -779 -1096 -1431 -1257 -213 -53 -242 -56 -485 -56 -237 0 -263 3
-475 52 -438 101 -841 354 -1128 708 -239 295 -399 666 -455 1058 l-6 37 97 0
c356 0 777 -168 1079 -429 43 -37 91 -85 107 -106 l29 -38 -12 -92 c-49 -350
21 -696 183 -912 114 -151 297 -242 401 -199 89 37 114 89 115 232 0 265 -138
732 -375 1260 -59 132 -73 173 -66 189 5 11 19 45 31 75 12 30 31 74 41 97 11
23 19 44 19 47 0 3 14 35 30 71 17 37 41 92 54 123 13 31 43 100 66 152 80
183 112 255 136 312 13 31 36 85 52 120 16 35 37 84 48 110 10 27 20 48 22 48
2 0 14 -26 28 -57z m-536 -1350 c23 -54 51 -116 60 -138 99 -222 217 -583 259
-790 59 -292 46 -415 -42 -415 -56 0 -155 55 -221 123 -135 138 -226 405 -226
667 0 141 37 374 86 545 26 89 32 105 39 105 1 0 22 -44 45 -97z m1108 -25
c117 -421 106 -782 -31 -1042 -97 -184 -298 -322 -377 -258 -21 17 -25 30 -28
98 -6 109 34 355 77 484 5 14 17 52 26 85 54 188 275 745 295 745 4 0 21 -51
38 -112z"/>
</g>
</svg>
